<svg id="Capa_1" xmlns="http://www.w3.org/2000/svg" viewBox="0 0 237 175.9"><style>.st0{fill:#eb6e08}.st1{fill:#525c54}</style><path class="st0" d="M43.7 132.7h.2c1.3-4.4 5.8-18.1 7.5-24.1.5-1.8.5-2.4.5-3 0-.9-.5-1.4-2.8-1.4-.2 0-.4-.1-.4-.3 0-.2.2-.3.8-.3 2.5 0 4.5.1 4.9.1.3 0 2.4-.1 3.9-.1.4 0 .7.1.7.3 0 .2-.1.4-.4.4-.2 0-1.1 0-1.7.2-1.5.5-2.2 2.5-3.2 5.1-2.1 6-7 21.1-8.9 26.4-1.3 3.5-1.5 4.1-2 4.1s-.8-.6-1.5-2.5l-9.5-26.3h-.1c-1.7 4.5-8.4 21.9-10.1 26.3-.8 2-1 2.5-1.6 2.5-.5 0-.7-.5-1.7-3.7L9.7 108c-.8-2.5-1.4-3.2-2.7-3.7-.6-.2-1.8-.3-2.2-.3-.2 0-.4 0-.4-.3 0-.2.3-.3.8-.3 2.5 0 5.2.1 5.7.1.4 0 2.6-.1 5-.1.7 0 .9.1.9.3 0 .3-.2.3-.5.3-.4 0-1.3 0-1.9.3-.3.1-.6.5-.6 1.1 0 .6.4 2.3.9 4.4.7 3 5.8 20.4 6.5 22.9h.1l10.3-27c.7-1.9.9-2.2 1.2-2.2.3 0 .6.6 1.2 2.2l9.7 27zM83.1 129.1c0 3.3 0 6.1.2 7.5.1 1 .3 1.8 1.4 1.9.5.1 1.3.1 1.6.1.2 0 .3.1.3.2 0 .2-.2.3-.6.3-1.9 0-4.2-.1-4.4-.1-.2 0-2.4.1-3.5.1-.4 0-.6-.1-.6-.3 0-.1.1-.2.3-.2.3 0 .7-.1 1.1-.1.7-.1.9-.9 1-1.9.2-1.5.2-4.2.2-7.5v-3.6c0-.1-.1-.2-.2-.2h-15c-.1 0-.2 0-.2.2v3.6c0 3.3 0 6.1.2 7.5.1 1 .3 1.8 1.4 1.9.5.1 1.3.1 1.6.1.2 0 .3.1.3.2 0 .2-.2.3-.6.3-1.9 0-4.2-.1-4.4-.1s-2.4.1-3.5.1c-.4 0-.6-.1-.6-.3 0-.1.1-.2.3-.2.3 0 .7-.1 1.1-.1.7-.1.9-.9 1-1.9.2-1.5.2-4.2.2-7.5V123c0-5.4 0-6.4-.1-7.5-.1-1.2-.4-1.7-1.5-2-.3-.1-.9-.1-1.2-.1-.1 0-.3-.1-.3-.2 0-.2.2-.3.6-.3 1.6 0 3.8.1 4 .1s2.4-.1 3.5-.1c.4 0 .6.1.6.3 0 .1-.1.2-.3.2-.2 0-.5 0-.9.1-1 .2-1.2.8-1.3 2-.1 1.1-.1 2.1-.1 7.5v.7c0 .2.1.2.2.2h15c.1 0 .2 0 .2-.2v-.7c0-5.4 0-6.4-.1-7.5-.1-1.2-.4-1.7-1.5-2-.3-.1-.9-.1-1.2-.1-.1 0-.3-.1-.3-.2 0-.2.2-.3.6-.3 1.6 0 3.8.1 4 .1.2 0 2.4-.1 3.5-.1.4 0 .6.1.6.3 0 .1-.1.2-.3.2-.2 0-.5 0-.9.1-1 .2-1.2.8-1.3 2-.1 1.1-.1 2.1-.1 7.5v6.1zM98.8 129.1c0 3.3 0 6.1.2 7.5.1 1 .3 1.8 1.4 1.9.5.1 1.3.1 1.6.1.2 0 .3.1.3.2 0 .2-.2.3-.6.3-2 0-4.2-.1-4.4-.1-.2 0-2.4.1-3.5.1-.4 0-.6-.1-.6-.3 0-.1.1-.2.3-.2.3 0 .7-.1 1.1-.1.7-.1.9-.9 1-1.9.2-1.5.2-4.2.2-7.5V123c0-5.4 0-6.4-.1-7.5-.1-1.2-.4-1.8-1.2-1.9-.4-.1-.9-.1-1.1-.1-.1 0-.3-.1-.3-.2 0-.2.2-.3.6-.3 1.2 0 3.4.1 3.6.1.2 0 2.4-.1 3.5-.1.4 0 .6.1.6.3 0 .1-.1.2-.3.2-.2 0-.5 0-.9.1-1 .2-1.2.8-1.3 2-.1 1.1-.1 2.1-.1 7.5v6zM118.9 129.1c0 3.3 0 6.1.2 7.5.1 1 .3 1.8 1.4 1.9.5.1 1.3.1 1.6.1.2 0 .3.1.3.2 0 .2-.2.3-.6.3-2 0-4.2-.1-4.4-.1s-2.4.1-3.5.1c-.4 0-.6-.1-.6-.3 0-.1.1-.2.3-.2.3 0 .7-.1 1.1-.1.7-.1.9-.9 1-1.9.2-1.5.2-4.2.2-7.5v-14.6l-5.2.1c-2.2 0-3.1.3-3.6 1.1-.4.6-.5.8-.6 1.1-.1.3-.2.3-.4.3-.1 0-.2-.1-.2-.3 0-.3.7-3.3.8-3.6.1-.2.2-.7.4-.7s.6.3 1.6.4c1 .1 2.4.2 2.8.2h13.3c1.1 0 2-.1 2.5-.2s.9-.2 1-.2c.2 0 .2.2.2.4 0 1-.1 3.4-.1 3.8 0 .3-.1.4-.2.4-.2 0-.2-.1-.3-.6v-.4c-.1-1-1-1.8-4.4-1.9l-4.5-.1v14.8zM139.4 113.8c.4-1.1.6-1.3.8-1.3.2 0 .4.2.8 1.2.5 1.3 6.1 15.6 8.3 20.9 1.3 3.1 2.3 3.6 3.1 3.8.5.2 1.1.2 1.4.2.2 0 .4 0 .4.2s-.3.3-.7.3c-.5 0-3.1 0-5.6-.1-.7 0-1.1 0-1.1-.2 0-.1.1-.2.2-.2.2-.1.4-.4.2-.9l-3.3-8.5c-.1-.1-.1-.2-.3-.2H136c-.2 0-.3.1-.4.3l-2.1 6.1c-.3.9-.5 1.7-.5 2.3 0 .7.7 1 1.3 1h.4c.2 0 .4.1.4.2 0 .2-.2.3-.5.3-.8 0-2.4-.1-2.8-.1-.4 0-2.3.1-4 .1-.5 0-.7-.1-.7-.3 0-.1.1-.2.3-.2.2 0 .7 0 1-.1 1.6-.2 2.3-1.5 3-3.3l8-21.5zm3.7 13.9c.2 0 .2-.1.1-.2l-3.4-9.3c-.2-.5-.4-.5-.5 0l-3.1 9.3c-.1.2 0 .2.1.2h6.8zM159.1 123c0-5.4 0-6.4-.1-7.5-.1-1.2-.4-1.7-1.5-2-.3-.1-.9-.1-1.2-.1-.1 0-.3-.1-.3-.2 0-.2.2-.3.6-.3 1.6 0 3.7.1 3.9.1.3 0 2.4-.1 3.4-.1.4 0 .6.1.6.3 0 .1-.1.2-.3.2-.2 0-.5 0-.9.1-1 .2-1.2.8-1.3 2-.1 1.1-.1 2.1-.1 7.5v2.1h.1c.6-.7 7-7 8.3-8.4 1-1 1.9-1.9 1.9-2.5 0-.4-.2-.6-.5-.7-.2-.1-.3-.1-.3-.3 0-.2.2-.2.4-.2.7 0 1.8.1 2.7.1.2 0 2.5-.1 3.4-.1.4 0 .5.1.5.2 0 .2-.1.2-.4.2-.5 0-1.3.2-2 .5-1.5.6-2.2 1.5-3.8 3-.9.8-7.1 6.7-7.8 7.6.9 1 8.3 8.4 9.8 9.8 3 2.7 3.6 3.3 5.3 3.9.9.4 1.9.5 2.2.5.2 0 .5.1.5.2 0 .2-.2.3-.8.3h-1.8c-1 0-1.7 0-2.4-.1-1.9-.2-2.8-.9-4.3-2.1-1.6-1.3-9.1-9.2-10.8-11.2h-.1v3.4c0 3.3 0 6.1.2 7.5.1 1 .3 1.8 1.4 1.9.5.1 1.1.1 1.4.1.2 0 .3.1.3.2 0 .2-.2.3-.6.3-1.7 0-3.8-.1-4.1-.1s-2.3.1-3.4.1c-.4 0-.6-.1-.6-.3 0-.1.1-.2.3-.2.3 0 .7-.1 1.1-.1.7-.1.9-.9 1-1.9.2-1.5.2-4.2.2-7.5V123zM185.8 123c0-5.4 0-6.4-.1-7.5-.1-1.2-.4-1.7-1.5-2-.3-.1-.9-.1-1.2-.1-.1 0-.3-.1-.3-.2 0-.2.2-.3.6-.3h2.6l1.5.1h8.1c.7 0 1.2-.1 1.5-.2.2 0 .3-.2.5-.2.1 0 .1.1.1.3 0 .2-.2.7-.3 1.6 0 .3-.1 1.9-.2 2.3 0 .2-.1.4-.2.4-.2 0-.3-.2-.3-.5 0-.2 0-.8-.2-1.2-.2-.6-.6-1-2.5-1.2-.6-.1-4.5-.1-4.9-.1-.1 0-.2.1-.2.3v9.6c0 .2 0 .3.2.3.5 0 4.8 0 5.6-.1.9-.1 1.3-.1 1.7-.5.3-.3.4-.5.5-.5.1 0 .2.1.2.3 0 .2-.2.8-.3 1.9-.1.7-.1 2-.1 2.2 0 .3 0 .7-.2.7s-.2-.1-.2-.3c0-.3 0-.7-.1-1.1-.1-.5-.5-1.1-1.8-1.2-1-.1-4.5-.2-5.1-.2-.2 0-.2.1-.2.2v8.9c.1 2.4.6 2.8 4.1 2.8.9 0 2.5 0 3.4-.4.9-.4 1.4-1.1 1.6-2.5.1-.4.1-.5.3-.5.2 0 .2.3.2.5 0 .3-.3 2.6-.5 3.4-.2.9-.5.9-1.9.9-2.7 0-4.6-.1-6-.1-1.4-.1-2.2-.1-2.8-.1H186c-.7 0-1.5.1-2.1.1-.4 0-.6-.1-.6-.3 0-.1.1-.2.3-.2.3 0 .7-.1 1.1-.1.7-.1.9-.9 1-1.9.2-1.5.2-4.2.2-7.5V123zM207.4 123c0-5.4 0-6.4-.1-7.5-.1-1.2-.4-1.7-1.5-2-.3-.1-.9-.1-1.2-.1-.1 0-.3-.1-.3-.2 0-.2.2-.3.6-.3 1.6 0 3.8.1 4 .1.4 0 3.1-.1 4.2-.1 2.2 0 4.6.2 6.5 1.5.9.6 2.4 2.3 2.4 4.7 0 2.6-1.1 5.1-4.3 8 2.9 3.6 5.3 6.7 7.4 8.9 1.9 2 3.4 2.4 4.3 2.5.7.1 1.2.1 1.4.1.2 0 .3.1.3.2 0 .2-.2.3-.9.3h-2.5c-2 0-2.9-.2-3.8-.7-1.5-.8-2.8-2.5-4.8-5.1-1.5-1.9-3.2-4.2-3.9-5.1-.1-.1-.2-.2-.5-.2l-4.4-.1c-.2 0-.2.1-.2.3v.8c0 3.3 0 6.1.2 7.5.1 1 .3 1.8 1.4 1.9.5.1 1.3.1 1.6.1.2 0 .3.1.3.2 0 .2-.2.3-.6.3-2 0-4.2-.1-4.4-.1 0 0-2.3.1-3.3.1-.4 0-.6-.1-.6-.3 0-.1.1-.2.3-.2.3 0 .7-.1 1.1-.1.7-.1.9-.9 1-1.9.2-1.5.2-4.2.2-7.5v-6zm2.9 3c0 .2.1.3.2.4.5.3 2.2.6 3.7.6.9 0 1.8-.1 2.7-.7 1.2-.8 2.2-2.7 2.2-5.3 0-4.3-2.3-6.9-6.1-6.9-1.1 0-2 .1-2.4.2-.2.1-.3.2-.3.4V126z"/><path class="st1" d="M45.2 154.1c.5-.1 1.2-.2 2-.2 1.1 0 1.8.2 2.3.6.4.3.7.8.7 1.5 0 .8-.5 1.5-1.4 1.8.8.2 1.7.8 1.7 2.1 0 .7-.3 1.3-.7 1.7-.6.5-1.5.8-2.9.8-.7 0-1.3 0-1.7-.1v-8.2zm1 3.4h1c1.1 0 1.8-.6 1.8-1.4 0-1-.7-1.4-1.8-1.4-.5 0-.8 0-.9.1v2.7zm0 4c.2 0 .5.1.9.1 1.1 0 2.1-.4 2.1-1.6 0-1.1-1-1.6-2.1-1.6h-.9v3.1zM52.9 154v4.9c0 1.8.8 2.6 1.9 2.6 1.2 0 2-.8 2-2.6V154h1.1v4.8c0 2.5-1.3 3.6-3.1 3.6-1.7 0-3-1-3-3.5V154h1.1zM59 161c.5.3 1.2.5 1.9.5 1.1 0 1.7-.6 1.7-1.4 0-.8-.4-1.2-1.6-1.6-1.4-.5-2.2-1.2-2.2-2.4 0-1.3 1.1-2.2 2.7-2.2.8 0 1.5.2 1.8.4l-.3.9c-.3-.2-.8-.4-1.6-.4-1.1 0-1.6.7-1.6 1.2 0 .8.5 1.2 1.6 1.6 1.4.5 2.1 1.2 2.1 2.4 0 1.3-.9 2.4-2.9 2.4-.8 0-1.7-.2-2.1-.5l.5-.9zM64.6 154h1.1v8.3h-1.1zM67 162.3V154h1.2l2.6 4.2c.6 1 1.1 1.8 1.5 2.7-.1-1.1-.1-2.1-.1-3.4V154h1v8.3h-1.1l-2.6-4.2c-.6-.9-1.1-1.9-1.5-2.8.1 1 .1 2 .1 3.4v3.5H67zM78.7 158.4h-3.2v3h3.6v.9h-4.7V154h4.5v.9h-3.4v2.6h3.2zM79.7 161c.5.3 1.2.5 1.9.5 1.1 0 1.7-.6 1.7-1.4 0-.8-.4-1.2-1.6-1.6-1.4-.5-2.2-1.2-2.2-2.4 0-1.3 1.1-2.2 2.7-2.2.8 0 1.5.2 1.8.4l-.3.9c-.3-.2-.8-.4-1.6-.4-1.1 0-1.6.7-1.6 1.2 0 .8.5 1.2 1.6 1.6 1.4.5 2.1 1.2 2.1 2.4 0 1.3-.9 2.4-2.9 2.4-.8 0-1.7-.2-2.1-.5l.5-.9zM85.2 161c.5.3 1.2.5 1.9.5 1.1 0 1.7-.6 1.7-1.4 0-.8-.4-1.2-1.6-1.6-1.4-.5-2.2-1.2-2.2-2.4 0-1.3 1.1-2.2 2.7-2.2.8 0 1.5.2 1.8.4l-.3.9c-.3-.2-.8-.4-1.6-.4-1.1 0-1.6.7-1.6 1.2 0 .8.5 1.2 1.6 1.6 1.4.5 2.1 1.2 2.1 2.4 0 1.3-.9 2.4-2.9 2.4-.8 0-1.7-.2-2.1-.5l.5-.9zM101.8 164.1c0-3 1.9-5 3.9-6.1-.9-1.3-1.2-2.4-1.2-3.5 0-2 2.1-4.7 5.5-4.7 1.3 0 2.4.3 3.1.6.3.2.3.3.3.6 0 .8-.1 2.5-.2 2.9-.1.4-.2.4-.3.4-.1 0-.2-.1-.2-.5 0-.7-.2-1.5-.8-2.2-.6-.6-1.4-1.1-2.5-1.1-1.5 0-3.2.9-3.2 3.3 0 2 1.4 3.6 4 6.5.9.9 4 3.9 4.8 4.5.7-1 1.3-2.7 1.3-4.2 0-.4-.1-.9-.5-1.2-.3-.3-.9-.4-1.2-.4-.2 0-.3-.1-.3-.2s.2-.2.4-.2c.6 0 1.6 0 3.1.2.4.1.5.3.5.5 0 2.1-1.4 4.6-2.5 6 1.7 1.4 2.8 2.1 3.5 2.5.8.5 2.1 1 3 1 .2 0 .4 0 .4.2 0 .1-.2.2-.4.2h-2.5c-1.9 0-2.5-.2-5.3-2.4-.6.6-2.6 2.7-6.4 2.7-4.6.3-6.3-3.2-6.3-5.4m11.8 2.4c-1.4-1.2-3.9-3.6-4.6-4.3-.7-.7-2.3-2.5-3-3.6-1.3.9-2.3 2.2-2.3 4.3 0 3.2 2.2 5.5 5.1 5.5 2.4 0 4-1 4.8-1.9M135.5 162c-.4.2-1.2.4-2.2.4-2.3 0-4.1-1.5-4.1-4.2 0-2.6 1.8-4.4 4.3-4.4 1 0 1.7.2 2 .4l-.3.9c-.4-.2-1-.3-1.7-.3-1.9 0-3.2 1.2-3.2 3.4 0 2 1.2 3.3 3.2 3.3.7 0 1.3-.1 1.8-.3l.2.8zM143.3 158.1c0 2.8-1.7 4.4-3.8 4.4-2.2 0-3.7-1.7-3.7-4.2 0-2.6 1.6-4.4 3.8-4.4 2.2 0 3.7 1.7 3.7 4.2m-6.5.1c0 1.8 1 3.4 2.7 3.4 1.7 0 2.7-1.6 2.7-3.4 0-1.7-.9-3.4-2.6-3.4-1.9-.1-2.8 1.6-2.8 3.4M144.1 162.3V154h1.2l2.6 4.2c.6 1 1.1 1.8 1.5 2.7-.1-1.1-.1-2.1-.1-3.4V154h1v8.3h-1.1l-2.6-4.2c-.6-.9-1.1-1.9-1.5-2.8.1 1 .1 2 .1 3.4v3.5h-1.1zM151.4 161c.5.3 1.2.5 1.9.5 1.1 0 1.7-.6 1.7-1.4 0-.8-.4-1.2-1.6-1.6-1.4-.5-2.2-1.2-2.2-2.4 0-1.3 1.1-2.2 2.7-2.2.8 0 1.5.2 1.8.4l-.3.9c-.3-.2-.8-.4-1.6-.4-1.1 0-1.6.7-1.6 1.2 0 .8.5 1.2 1.6 1.6 1.4.5 2.1 1.2 2.1 2.4 0 1.3-.9 2.4-2.9 2.4-.8 0-1.7-.2-2.1-.5l.5-.9zM158.1 154v4.9c0 1.8.8 2.6 1.9 2.6 1.2 0 2-.8 2-2.6V154h1.1v4.8c0 2.5-1.3 3.6-3.1 3.6-1.7 0-3-1-3-3.5V154h1.1zM164.3 154h1.1v7.4h3.6v.9h-4.7zM170.5 154.9H168v-.9h6.1v.9h-2.5v7.4h-1.1zM174.4 154h1.1v8.3h-1.1zM176.8 162.3V154h1.2l2.6 4.2c.6 1 1.1 1.8 1.5 2.7-.1-1.1-.1-2.1-.1-3.4V154h1v8.3h-1.1l-2.6-4.2c-.6-.9-1.1-1.9-1.5-2.8.1 1 .1 2 .1 3.4v3.5h-1.1zM190.7 161.9c-.5.2-1.4.5-2.6.5-1.3 0-2.3-.3-3.1-1.1-.7-.7-1.2-1.8-1.2-3.1 0-2.5 1.7-4.3 4.5-4.3 1 0 1.7.2 2.1.4l-.3.9c-.4-.2-1-.4-1.8-.4-2 0-3.3 1.3-3.3 3.3 0 2.1 1.3 3.3 3.2 3.3.7 0 1.2-.1 1.4-.2v-2.5h-1.7v-.7h2.7v3.9z"/><path class="st0" d="M158 50.5V7.6L147.4 4v43.8s2.3 24.7-21.5 29.3c.1 0 32.1 3.1 32.1-26.6M115.9 49.6V7.8L104.5 4v43.8s-.5 11.2 4.9 15.6c0 0 5.2-2.7 7.2-7.5 0 0-.7-3.7-.7-6.3"/><path class="st1" d="M137.8 50.2V7.6L127.3 4v43.8s.1 25.8-24.7 25.8c0 0-18.2 1-25-12.4 0 0 8.7 20.7 37.5 15.9 0 0 22.7-3.2 22.7-26.9"/><path class="st1" d="M94.8 49.6V7.8L83.4 4v43.8S83 67.5 104 64.7c0 .1-9.2 1-9.2-15.1"/></svg>